# 3ds Max Wavefront OBJ Exporter v0.99 - (c)2007 guruware
# File Created: 08.02.2025 16:56:31

#
# object Box001
#

v  -0.4629 0.0000 0.5994
v  -0.4806 0.0000 0.5976
v  -0.4970 0.0000 0.5945
v  -0.5123 0.0000 0.5902
v  -0.5263 0.0000 0.5848
v  -0.5391 0.0000 0.5781
v  -0.5506 0.0000 0.5701
v  -0.5610 0.0000 0.5610
v  -0.5701 0.0000 0.5506
v  -0.5781 0.0000 0.5391
v  -0.5848 0.0000 0.5263
v  -0.5902 0.0000 0.5123
v  -0.5945 0.0000 0.4970
v  -0.5976 0.0000 0.4806
v  -0.5994 0.0000 0.4629
v  -0.6000 0.0000 0.4440
v  -0.6000 0.0000 -0.4440
v  -0.5994 0.0000 -0.4629
v  -0.5976 0.0000 -0.4806
v  -0.5945 0.0000 -0.4970
v  -0.5902 0.0000 -0.5123
v  -0.5848 0.0000 -0.5263
v  -0.5781 0.0000 -0.5391
v  -0.5701 0.0000 -0.5506
v  -0.5610 0.0000 -0.5610
v  -0.5506 0.0000 -0.5701
v  -0.5391 0.0000 -0.5781
v  -0.5263 0.0000 -0.5848
v  -0.5123 0.0000 -0.5902
v  -0.4970 0.0000 -0.5945
v  -0.4806 0.0000 -0.5976
v  -0.4629 0.0000 -0.5994
v  -0.4440 0.0000 -0.6000
v  0.4440 0.0000 -0.6000
v  0.4629 0.0000 -0.5994
v  0.4806 0.0000 -0.5976
v  0.4970 0.0000 -0.5945
v  0.5123 0.0000 -0.5902
v  0.5263 0.0000 -0.5848
v  0.5391 0.0000 -0.5781
v  0.5506 0.0000 -0.5701
v  0.5610 0.0000 -0.5610
v  0.5701 0.0000 -0.5506
v  0.5781 0.0000 -0.5391
v  0.5848 0.0000 -0.5263
v  0.5902 0.0000 -0.5123
v  0.5945 0.0000 -0.4970
v  0.5976 0.0000 -0.4806
v  0.5994 0.0000 -0.4629
v  0.6000 0.0000 -0.4440
v  0.6000 0.0000 0.4440
v  0.5994 0.0000 0.4629
v  0.5976 0.0000 0.4806
v  0.5945 0.0000 0.4970
v  0.5902 0.0000 0.5123
v  0.5848 0.0000 0.5263
v  0.5781 0.0000 0.5391
v  0.5701 0.0000 0.5506
v  0.5610 0.0000 0.5610
v  0.5506 0.0000 0.5701
v  0.5391 0.0000 0.5781
v  0.5263 0.0000 0.5848
v  0.5123 0.0000 0.5902
v  0.4970 0.0000 0.5945
v  0.4806 0.0000 0.5976
v  0.4629 0.0000 0.5994
v  0.4440 0.0000 0.6000
v  -0.4440 0.0000 0.6000
v  -0.5994 0.1500 0.4629
v  -0.5976 0.1500 0.4806
v  -0.5945 0.1500 0.4970
v  -0.5902 0.1500 0.5123
v  -0.5848 0.1500 0.5263
v  -0.5781 0.1500 0.5391
v  -0.5701 0.1500 0.5506
v  -0.5610 0.1500 0.5610
v  -0.5506 0.1500 0.5701
v  -0.5391 0.1500 0.5781
v  -0.5263 0.1500 0.5848
v  -0.5123 0.1500 0.5902
v  -0.4970 0.1500 0.5945
v  -0.4806 0.1500 0.5976
v  -0.4629 0.1500 0.5994
v  -0.4440 0.1500 0.6000
v  0.4440 0.1500 0.6000
v  0.4629 0.1500 0.5994
v  0.4806 0.1500 0.5976
v  0.4970 0.1500 0.5945
v  0.5123 0.1500 0.5902
v  0.5263 0.1500 0.5848
v  0.5391 0.1500 0.5781
v  0.5506 0.1500 0.5701
v  0.5610 0.1500 0.5610
v  0.5701 0.1500 0.5506
v  0.5781 0.1500 0.5391
v  0.5848 0.1500 0.5263
v  0.5902 0.1500 0.5123
v  0.5945 0.1500 0.4970
v  0.5976 0.1500 0.4806
v  0.5994 0.1500 0.4629
v  0.6000 0.1500 0.4440
v  0.6000 0.1500 -0.4440
v  0.5994 0.1500 -0.4629
v  0.5976 0.1500 -0.4806
v  0.5945 0.1500 -0.4970
v  0.5902 0.1500 -0.5123
v  0.5848 0.1500 -0.5263
v  0.5781 0.1500 -0.5391
v  0.5701 0.1500 -0.5506
v  0.5610 0.1500 -0.5610
v  0.5506 0.1500 -0.5701
v  0.5391 0.1500 -0.5781
v  0.5263 0.1500 -0.5848
v  0.5123 0.1500 -0.5902
v  0.4970 0.1500 -0.5945
v  0.4806 0.1500 -0.5976
v  0.4629 0.1500 -0.5994
v  0.4440 0.1500 -0.6000
v  -0.4440 0.1500 -0.6000
v  -0.4629 0.1500 -0.5994
v  -0.4806 0.1500 -0.5976
v  -0.4970 0.1500 -0.5945
v  -0.5123 0.1500 -0.5902
v  -0.5263 0.1500 -0.5848
v  -0.5391 0.1500 -0.5781
v  -0.5506 0.1500 -0.5701
v  -0.5610 0.1500 -0.5610
v  -0.5701 0.1500 -0.5506
v  -0.5781 0.1500 -0.5391
v  -0.5848 0.1500 -0.5263
v  -0.5902 0.1500 -0.5123
v  -0.5945 0.1500 -0.4970
v  -0.5976 0.1500 -0.4806
v  -0.5994 0.1500 -0.4629
v  -0.6000 0.1500 -0.4440
v  -0.6000 0.1500 0.4440
# 136 vertices

vn 0.0000 -1.0000 -0.0000
vn 0.0000 1.0000 -0.0000
vn 0.0161 0.0000 0.9999
vn -0.0161 0.0000 0.9999
vn 0.9999 0.0000 -0.0161
vn 0.9999 0.0000 0.0161
vn -0.0161 0.0000 -0.9999
vn 0.0161 0.0000 -0.9999
vn -0.9999 0.0000 0.0161
vn -0.9999 0.0000 -0.0161
vn 0.0676 0.0000 0.9977
vn 0.1426 0.0000 0.9898
vn 0.2261 0.0000 0.9741
vn 0.3174 0.0000 0.9483
vn 0.4148 0.0000 0.9099
vn 0.5152 0.0000 0.8571
vn 0.6143 0.0000 0.7891
vn 0.7071 0.0000 0.7071
vn -0.0676 0.0000 0.9977
vn -0.1426 0.0000 0.9898
vn -0.2261 0.0000 0.9741
vn -0.3174 0.0000 0.9483
vn -0.4148 0.0000 0.9099
vn -0.5152 0.0000 0.8571
vn -0.6143 0.0000 0.7891
vn -0.7071 0.0000 0.7071
vn 0.9977 0.0000 -0.0676
vn 0.9898 0.0000 -0.1426
vn 0.9741 0.0000 -0.2261
vn 0.9483 0.0000 -0.3174
vn 0.9099 0.0000 -0.4148
vn 0.8571 0.0000 -0.5152
vn 0.7891 0.0000 -0.6143
vn 0.7071 0.0000 -0.7071
vn 0.9977 0.0000 0.0676
vn 0.9898 0.0000 0.1426
vn 0.9741 0.0000 0.2261
vn 0.9483 0.0000 0.3174
vn 0.9099 0.0000 0.4148
vn 0.8571 0.0000 0.5152
vn 0.7891 0.0000 0.6143
vn -0.0676 0.0000 -0.9977
vn -0.1426 0.0000 -0.9898
vn -0.2261 0.0000 -0.9741
vn -0.3174 0.0000 -0.9483
vn -0.4148 0.0000 -0.9099
vn -0.5152 0.0000 -0.8571
vn -0.6143 0.0000 -0.7891
vn -0.7071 0.0000 -0.7071
vn 0.0676 0.0000 -0.9977
vn 0.1426 0.0000 -0.9898
vn 0.2261 0.0000 -0.9741
vn 0.3174 0.0000 -0.9483
vn 0.4148 0.0000 -0.9099
vn 0.5152 0.0000 -0.8571
vn 0.6143 0.0000 -0.7891
vn -0.9977 0.0000 0.0676
vn -0.9898 0.0000 0.1426
vn -0.9741 0.0000 0.2261
vn -0.9483 0.0000 0.3174
vn -0.9099 0.0000 0.4148
vn -0.8571 0.0000 0.5152
vn -0.7891 0.0000 0.6143
vn -0.9977 0.0000 -0.0676
vn -0.9898 0.0000 -0.1426
vn -0.9741 0.0000 -0.2261
vn -0.9483 0.0000 -0.3174
vn -0.9099 0.0000 -0.4148
vn -0.8571 0.0000 -0.5152
vn -0.7891 0.0000 -0.6143
# 70 vertex normals

vt 0.9879 0.0235 0.0000
vt 0.9885 0.0242 0.0000
vt 0.9891 0.0255 0.0000
vt 0.9897 0.0272 0.0000
vt 0.9902 0.0294 0.0000
vt 0.9906 0.0320 0.0000
vt 0.9910 0.0352 0.0000
vt 0.9914 0.0389 0.0000
vt 0.9917 0.0430 0.0000
vt 0.9920 0.0476 0.0000
vt 0.9923 0.0527 0.0000
vt 0.9925 0.0583 0.0000
vt 0.9926 0.0644 0.0000
vt 0.9927 0.0710 0.0000
vt 0.9928 0.0781 0.0000
vt 0.9928 0.0856 0.0000
vt 0.9928 0.4406 0.0000
vt 0.9928 0.4481 0.0000
vt 0.9927 0.4552 0.0000
vt 0.9926 0.4618 0.0000
vt 0.9925 0.4679 0.0000
vt 0.9923 0.4735 0.0000
vt 0.9920 0.4786 0.0000
vt 0.9917 0.4832 0.0000
vt 0.9914 0.4873 0.0000
vt 0.9910 0.4910 0.0000
vt 0.9906 0.4942 0.0000
vt 0.9902 0.4968 0.0000
vt 0.9897 0.4990 0.0000
vt 0.9891 0.5007 0.0000
vt 0.9885 0.5020 0.0000
vt 0.9879 0.5027 0.0000
vt 0.9872 0.5029 0.0000
vt 0.9553 0.5029 0.0000
vt 0.9547 0.5027 0.0000
vt 0.9540 0.5020 0.0000
vt 0.9534 0.5007 0.0000
vt 0.9529 0.4990 0.0000
vt 0.9524 0.4968 0.0000
vt 0.9519 0.4942 0.0000
vt 0.9515 0.4910 0.0000
vt 0.9512 0.4873 0.0000
vt 0.9508 0.4832 0.0000
vt 0.9505 0.4786 0.0000
vt 0.9503 0.4735 0.0000
vt 0.9501 0.4679 0.0000
vt 0.9499 0.4618 0.0000
vt 0.9498 0.4552 0.0000
vt 0.9498 0.4481 0.0000
vt 0.9498 0.4406 0.0000
vt 0.9498 0.0856 0.0000
vt 0.9498 0.0781 0.0000
vt 0.9498 0.0710 0.0000
vt 0.9499 0.0644 0.0000
vt 0.9501 0.0583 0.0000
vt 0.9503 0.0527 0.0000
vt 0.9505 0.0476 0.0000
vt 0.9508 0.0430 0.0000
vt 0.9512 0.0389 0.0000
vt 0.9515 0.0352 0.0000
vt 0.9519 0.0320 0.0000
vt 0.9524 0.0294 0.0000
vt 0.9529 0.0272 0.0000
vt 0.9534 0.0255 0.0000
vt 0.9540 0.0242 0.0000
vt 0.9547 0.0235 0.0000
vt 0.9553 0.0233 0.0000
vt 0.9872 0.0233 0.0000
vt 0.0017 0.1176 0.0000
vt 0.0032 0.1030 0.0000
vt 0.0055 0.0894 0.0000
vt 0.0089 0.0767 0.0000
vt 0.0131 0.0651 0.0000
vt 0.0184 0.0545 0.0000
vt 0.0245 0.0449 0.0000
vt 0.0317 0.0363 0.0000
vt 0.0397 0.0288 0.0000
vt 0.0488 0.0222 0.0000
vt 0.0587 0.0167 0.0000
vt 0.0697 0.0121 0.0000
vt 0.0815 0.0086 0.0000
vt 0.0944 0.0061 0.0000
vt 0.1082 0.0045 0.0000
vt 0.1229 0.0040 0.0000
vt 0.8152 0.0040 0.0000
vt 0.8300 0.0045 0.0000
vt 0.8437 0.0061 0.0000
vt 0.8566 0.0086 0.0000
vt 0.8684 0.0121 0.0000
vt 0.8794 0.0167 0.0000
vt 0.8894 0.0222 0.0000
vt 0.8984 0.0288 0.0000
vt 0.9065 0.0363 0.0000
vt 0.9136 0.0449 0.0000
vt 0.9198 0.0545 0.0000
vt 0.9250 0.0651 0.0000
vt 0.9293 0.0767 0.0000
vt 0.9326 0.0894 0.0000
vt 0.9350 0.1030 0.0000
vt 0.9364 0.1176 0.0000
vt 0.9369 0.1333 0.0000
vt 0.9369 0.8691 0.0000
vt 0.9364 0.8847 0.0000
vt 0.9350 0.8993 0.0000
vt 0.9326 0.9130 0.0000
vt 0.9293 0.9256 0.0000
vt 0.9250 0.9372 0.0000
vt 0.9198 0.9478 0.0000
vt 0.9136 0.9574 0.0000
vt 0.9065 0.9660 0.0000
vt 0.8984 0.9736 0.0000
vt 0.8894 0.9801 0.0000
vt 0.8794 0.9857 0.0000
vt 0.8684 0.9902 0.0000
vt 0.8566 0.9938 0.0000
vt 0.8437 0.9963 0.0000
vt 0.8300 0.9978 0.0000
vt 0.8152 0.9983 0.0000
vt 0.1229 0.9983 0.0000
vt 0.1082 0.9978 0.0000
vt 0.0944 0.9963 0.0000
vt 0.0815 0.9938 0.0000
vt 0.0697 0.9902 0.0000
vt 0.0587 0.9857 0.0000
vt 0.0488 0.9801 0.0000
vt 0.0397 0.9736 0.0000
vt 0.0317 0.9660 0.0000
vt 0.0245 0.9574 0.0000
vt 0.0184 0.9478 0.0000
vt 0.0131 0.9372 0.0000
vt 0.0089 0.9256 0.0000
vt 0.0055 0.9130 0.0000
vt 0.0032 0.8993 0.0000
vt 0.0017 0.8847 0.0000
vt 0.0013 0.8691 0.0000
vt 0.0013 0.1333 0.0000
vt 0.9881 0.1320 0.0000
vt 0.9881 0.7988 0.0000
vt 0.9549 0.7988 0.0000
vt 0.9549 0.1320 0.0000
vt 0.9939 0.1320 0.0000
vt 0.9939 0.7988 0.0000
vt 0.9491 0.1320 0.0000
vt 0.9491 0.7988 0.0000
vt 0.9888 0.1320 0.0000
vt 0.9888 0.7988 0.0000
vt 0.9894 0.1320 0.0000
vt 0.9894 0.7988 0.0000
vt 0.9900 0.1320 0.0000
vt 0.9900 0.7988 0.0000
vt 0.9906 0.1320 0.0000
vt 0.9906 0.7988 0.0000
vt 0.9911 0.1320 0.0000
vt 0.9911 0.7988 0.0000
vt 0.9916 0.1320 0.0000
vt 0.9916 0.7988 0.0000
vt 0.9920 0.1320 0.0000
vt 0.9920 0.7988 0.0000
vt 0.9924 0.1320 0.0000
vt 0.9924 0.7988 0.0000
vt 0.9542 0.7988 0.0000
vt 0.9542 0.1320 0.0000
vt 0.9535 0.7988 0.0000
vt 0.9535 0.1320 0.0000
vt 0.9529 0.7988 0.0000
vt 0.9529 0.1320 0.0000
vt 0.9524 0.7988 0.0000
vt 0.9524 0.1320 0.0000
vt 0.9518 0.7988 0.0000
vt 0.9518 0.1320 0.0000
vt 0.9514 0.7988 0.0000
vt 0.9514 0.1320 0.0000
vt 0.9509 0.7988 0.0000
vt 0.9509 0.1320 0.0000
vt 0.9505 0.7988 0.0000
vt 0.9505 0.1320 0.0000
vt 0.9938 0.1320 0.0000
vt 0.9938 0.7988 0.0000
vt 0.9937 0.1320 0.0000
vt 0.9937 0.7988 0.0000
vt 0.9935 0.1320 0.0000
vt 0.9935 0.7988 0.0000
vt 0.9933 0.1320 0.0000
vt 0.9933 0.7988 0.0000
vt 0.9931 0.1320 0.0000
vt 0.9931 0.7988 0.0000
vt 0.9928 0.1320 0.0000
vt 0.9928 0.7988 0.0000
vt 0.9492 0.1320 0.0000
vt 0.9492 0.7988 0.0000
vt 0.9493 0.1320 0.0000
vt 0.9493 0.7988 0.0000
vt 0.9495 0.1320 0.0000
vt 0.9495 0.7988 0.0000
vt 0.9497 0.1320 0.0000
vt 0.9497 0.7988 0.0000
vt 0.9499 0.1320 0.0000
vt 0.9499 0.7988 0.0000
vt 0.9502 0.1320 0.0000
vt 0.9502 0.7988 0.0000
# 200 texture coords

o Box001
g Box001
s 1
f 1/1/1 2/2/1 3/3/1 
f 3/3/1 4/4/1 5/5/1 
f 5/5/1 6/6/1 7/7/1 
f 3/3/1 5/5/1 7/7/1 
f 7/7/1 8/8/1 9/9/1 
f 9/9/1 10/10/1 11/11/1 
f 7/7/1 9/9/1 11/11/1 
f 11/11/1 12/12/1 13/13/1 
f 13/13/1 14/14/1 15/15/1 
f 11/11/1 13/13/1 15/15/1 
f 7/7/1 11/11/1 15/15/1 
f 15/15/1 16/16/1 17/17/1 
f 17/17/1 18/18/1 19/19/1 
f 15/15/1 17/17/1 19/19/1 
f 19/19/1 20/20/1 21/21/1 
f 21/21/1 22/22/1 23/23/1 
f 19/19/1 21/21/1 23/23/1 
f 15/15/1 19/19/1 23/23/1 
f 7/7/1 15/15/1 23/23/1 
f 23/23/1 24/24/1 25/25/1 
f 25/25/1 26/26/1 27/27/1 
f 23/23/1 25/25/1 27/27/1 
f 27/27/1 28/28/1 29/29/1 
f 29/29/1 30/30/1 31/31/1 
f 27/27/1 29/29/1 31/31/1 
f 23/23/1 27/27/1 31/31/1 
f 31/31/1 32/32/1 33/33/1 
f 33/33/1 34/34/1 35/35/1 
f 31/31/1 33/33/1 35/35/1 
f 35/35/1 36/36/1 37/37/1 
f 37/37/1 38/38/1 39/39/1 
f 35/35/1 37/37/1 39/39/1 
f 31/31/1 35/35/1 39/39/1 
f 23/23/1 31/31/1 39/39/1 
f 39/39/1 40/40/1 41/41/1 
f 41/41/1 42/42/1 43/43/1 
f 39/39/1 41/41/1 43/43/1 
f 43/43/1 44/44/1 45/45/1 
f 45/45/1 46/46/1 47/47/1 
f 43/43/1 45/45/1 47/47/1 
f 39/39/1 43/43/1 47/47/1 
f 47/47/1 48/48/1 49/49/1 
f 49/49/1 50/50/1 51/51/1 
f 47/47/1 49/49/1 51/51/1 
f 51/51/1 52/52/1 53/53/1 
f 53/53/1 54/54/1 55/55/1 
f 51/51/1 53/53/1 55/55/1 
f 47/47/1 51/51/1 55/55/1 
f 39/39/1 47/47/1 55/55/1 
f 23/23/1 39/39/1 55/55/1 
f 7/7/1 23/23/1 55/55/1 
f 55/55/1 56/56/1 57/57/1 
f 57/57/1 58/58/1 59/59/1 
f 55/55/1 57/57/1 59/59/1 
f 59/59/1 60/60/1 61/61/1 
f 61/61/1 62/62/1 63/63/1 
f 59/59/1 61/61/1 63/63/1 
f 55/55/1 59/59/1 63/63/1 
f 7/7/1 55/55/1 63/63/1 
f 63/63/1 64/64/1 65/65/1 
f 65/65/1 66/66/1 67/67/1 
f 63/63/1 65/65/1 67/67/1 
f 7/7/1 63/63/1 67/67/1 
f 3/3/1 7/7/1 67/67/1 
f 1/1/1 3/3/1 67/67/1 
f 68/68/1 1/1/1 67/67/1 
f 69/69/2 70/70/2 71/71/2 
f 71/71/2 72/72/2 73/73/2 
f 73/73/2 74/74/2 75/75/2 
f 71/71/2 73/73/2 75/75/2 
f 75/75/2 76/76/2 77/77/2 
f 77/77/2 78/78/2 79/79/2 
f 75/75/2 77/77/2 79/79/2 
f 79/79/2 80/80/2 81/81/2 
f 81/81/2 82/82/2 83/83/2 
f 79/79/2 81/81/2 83/83/2 
f 75/75/2 79/79/2 83/83/2 
f 83/83/2 84/84/2 85/85/2 
f 85/85/2 86/86/2 87/87/2 
f 83/83/2 85/85/2 87/87/2 
f 87/87/2 88/88/2 89/89/2 
f 89/89/2 90/90/2 91/91/2 
f 87/87/2 89/89/2 91/91/2 
f 83/83/2 87/87/2 91/91/2 
f 75/75/2 83/83/2 91/91/2 
f 91/91/2 92/92/2 93/93/2 
f 93/93/2 94/94/2 95/95/2 
f 91/91/2 93/93/2 95/95/2 
f 95/95/2 96/96/2 97/97/2 
f 97/97/2 98/98/2 99/99/2 
f 95/95/2 97/97/2 99/99/2 
f 91/91/2 95/95/2 99/99/2 
f 99/99/2 100/100/2 101/101/2 
f 101/101/2 102/102/2 103/103/2 
f 99/99/2 101/101/2 103/103/2 
f 103/103/2 104/104/2 105/105/2 
f 105/105/2 106/106/2 107/107/2 
f 103/103/2 105/105/2 107/107/2 
f 99/99/2 103/103/2 107/107/2 
f 91/91/2 99/99/2 107/107/2 
f 107/107/2 108/108/2 109/109/2 
f 109/109/2 110/110/2 111/111/2 
f 107/107/2 109/109/2 111/111/2 
f 111/111/2 112/112/2 113/113/2 
f 113/113/2 114/114/2 115/115/2 
f 111/111/2 113/113/2 115/115/2 
f 107/107/2 111/111/2 115/115/2 
f 115/115/2 116/116/2 117/117/2 
f 117/117/2 118/118/2 119/119/2 
f 115/115/2 117/117/2 119/119/2 
f 119/119/2 120/120/2 121/121/2 
f 121/121/2 122/122/2 123/123/2 
f 119/119/2 121/121/2 123/123/2 
f 115/115/2 119/119/2 123/123/2 
f 107/107/2 115/115/2 123/123/2 
f 91/91/2 107/107/2 123/123/2 
f 75/75/2 91/91/2 123/123/2 
f 123/123/2 124/124/2 125/125/2 
f 125/125/2 126/126/2 127/127/2 
f 123/123/2 125/125/2 127/127/2 
f 127/127/2 128/128/2 129/129/2 
f 129/129/2 130/130/2 131/131/2 
f 127/127/2 129/129/2 131/131/2 
f 123/123/2 127/127/2 131/131/2 
f 75/75/2 123/123/2 131/131/2 
f 131/131/2 132/132/2 133/133/2 
f 133/133/2 134/134/2 135/135/2 
f 131/131/2 133/133/2 135/135/2 
f 75/75/2 131/131/2 135/135/2 
f 71/71/2 75/75/2 135/135/2 
f 69/69/2 71/71/2 135/135/2 
f 136/136/2 69/69/2 135/135/2 
s 2
f 67/137/3 85/138/3 84/139/4 
f 84/139/4 68/140/4 67/137/3 
f 50/141/5 102/142/5 101/142/6 
f 101/142/6 51/141/6 50/141/5 
f 33/140/7 119/139/7 118/138/8 
f 118/138/8 34/137/8 33/140/7 
f 16/143/9 136/144/9 135/144/10 
f 135/144/10 17/143/10 16/143/9 
f 85/138/3 67/137/3 66/145/11 
f 66/145/11 86/146/11 85/138/3 
f 86/146/11 66/145/11 65/147/12 
f 65/147/12 87/148/12 86/146/11 
f 87/148/12 65/147/12 64/149/13 
f 64/149/13 88/150/13 87/148/12 
f 88/150/13 64/149/13 63/151/14 
f 63/151/14 89/152/14 88/150/13 
f 89/152/14 63/151/14 62/153/15 
f 62/153/15 90/154/15 89/152/14 
f 90/154/15 62/153/15 61/155/16 
f 61/155/16 91/156/16 90/154/15 
f 91/156/16 61/155/16 60/157/17 
f 60/157/17 92/158/17 91/156/16 
f 92/158/17 60/157/17 59/159/18 
f 59/159/18 93/160/18 92/158/17 
f 68/140/4 84/139/4 83/161/19 
f 83/161/19 1/162/19 68/140/4 
f 1/162/19 83/161/19 82/163/20 
f 82/163/20 2/164/20 1/162/19 
f 2/164/20 82/163/20 81/165/21 
f 81/165/21 3/166/21 2/164/20 
f 3/166/21 81/165/21 80/167/22 
f 80/167/22 4/168/22 3/166/21 
f 4/168/22 80/167/22 79/169/23 
f 79/169/23 5/170/23 4/168/22 
f 5/170/23 79/169/23 78/171/24 
f 78/171/24 6/172/24 5/170/23 
f 6/172/24 78/171/24 77/173/25 
f 77/173/25 7/174/25 6/172/24 
f 7/174/25 77/173/25 76/175/26 
f 76/175/26 8/176/26 7/174/25 
f 102/142/5 50/141/5 49/141/27 
f 49/141/27 103/142/27 102/142/5 
f 103/142/27 49/141/27 48/177/28 
f 48/177/28 104/178/28 103/142/27 
f 104/178/28 48/177/28 47/179/29 
f 47/179/29 105/180/29 104/178/28 
f 105/180/29 47/179/29 46/181/30 
f 46/181/30 106/182/30 105/180/29 
f 106/182/30 46/181/30 45/183/31 
f 45/183/31 107/184/31 106/182/30 
f 107/184/31 45/183/31 44/185/32 
f 44/185/32 108/186/32 107/184/31 
f 108/186/32 44/185/32 43/187/33 
f 43/187/33 109/188/33 108/186/32 
f 109/188/33 43/187/33 42/159/34 
f 42/159/34 110/160/34 109/188/33 
f 51/141/6 101/142/6 100/142/35 
f 100/142/35 52/141/35 51/141/6 
f 52/141/35 100/142/35 99/178/36 
f 99/178/36 53/177/36 52/141/35 
f 53/177/36 99/178/36 98/180/37 
f 98/180/37 54/179/37 53/177/36 
f 54/179/37 98/180/37 97/182/38 
f 97/182/38 55/181/38 54/179/37 
f 55/181/38 97/182/38 96/184/39 
f 96/184/39 56/183/39 55/181/38 
f 56/183/39 96/184/39 95/186/40 
f 95/186/40 57/185/40 56/183/39 
f 57/185/40 95/186/40 94/188/41 
f 94/188/41 58/187/41 57/185/40 
f 58/187/41 94/188/41 93/160/18 
f 93/160/18 59/159/18 58/187/41 
f 119/139/7 33/140/7 32/162/42 
f 32/162/42 120/161/42 119/139/7 
f 120/161/42 32/162/42 31/164/43 
f 31/164/43 121/163/43 120/161/42 
f 121/163/43 31/164/43 30/166/44 
f 30/166/44 122/165/44 121/163/43 
f 122/165/44 30/166/44 29/168/45 
f 29/168/45 123/167/45 122/165/44 
f 123/167/45 29/168/45 28/170/46 
f 28/170/46 124/169/46 123/167/45 
f 124/169/46 28/170/46 27/172/47 
f 27/172/47 125/171/47 124/169/46 
f 125/171/47 27/172/47 26/174/48 
f 26/174/48 126/173/48 125/171/47 
f 126/173/48 26/174/48 25/176/49 
f 25/176/49 127/175/49 126/173/48 
f 34/137/8 118/138/8 117/146/50 
f 117/146/50 35/145/50 34/137/8 
f 35/145/50 117/146/50 116/148/51 
f 116/148/51 36/147/51 35/145/50 
f 36/147/51 116/148/51 115/150/52 
f 115/150/52 37/149/52 36/147/51 
f 37/149/52 115/150/52 114/152/53 
f 114/152/53 38/151/53 37/149/52 
f 38/151/53 114/152/53 113/154/54 
f 113/154/54 39/153/54 38/151/53 
f 39/153/54 113/154/54 112/156/55 
f 112/156/55 40/155/55 39/153/54 
f 40/155/55 112/156/55 111/158/56 
f 111/158/56 41/157/56 40/155/55 
f 41/157/56 111/158/56 110/160/34 
f 110/160/34 42/159/34 41/157/56 
f 136/144/9 16/143/9 15/143/57 
f 15/143/57 69/144/57 136/144/9 
f 69/144/57 15/143/57 14/189/58 
f 14/189/58 70/190/58 69/144/57 
f 70/190/58 14/189/58 13/191/59 
f 13/191/59 71/192/59 70/190/58 
f 71/192/59 13/191/59 12/193/60 
f 12/193/60 72/194/60 71/192/59 
f 72/194/60 12/193/60 11/195/61 
f 11/195/61 73/196/61 72/194/60 
f 73/196/61 11/195/61 10/197/62 
f 10/197/62 74/198/62 73/196/61 
f 74/198/62 10/197/62 9/199/63 
f 9/199/63 75/200/63 74/198/62 
f 75/200/63 9/199/63 8/176/26 
f 8/176/26 76/175/26 75/200/63 
f 17/143/10 135/144/10 134/144/64 
f 134/144/64 18/143/64 17/143/10 
f 18/143/64 134/144/64 133/190/65 
f 133/190/65 19/189/65 18/143/64 
f 19/189/65 133/190/65 132/192/66 
f 132/192/66 20/191/66 19/189/65 
f 20/191/66 132/192/66 131/194/67 
f 131/194/67 21/193/67 20/191/66 
f 21/193/67 131/194/67 130/196/68 
f 130/196/68 22/195/68 21/193/67 
f 22/195/68 130/196/68 129/198/69 
f 129/198/69 23/197/69 22/195/68 
f 23/197/69 129/198/69 128/200/70 
f 128/200/70 24/199/70 23/197/69 
f 24/199/70 128/200/70 127/175/49 
f 127/175/49 25/176/49 24/199/70 
# 268 faces

